<svg id="Layer_1" xmlns="http://www.w3.org/2000/svg" xmlns:xlink="http://www.w3.org/1999/xlink" viewBox="0 0 1669 559.9"><style>.st3{opacity:.45}.st5{opacity:.8}</style><path d="M559.8 304.1c0 2.6-2.2 4.8-4.8 4.8h-93.1c2.3 23 19.6 44 44 44 16.6 0 29-6.4 38.3-19.6 1.3-1.8 3.4-3 5.9-1.9 1.4.6 2.4 1.9 2.6 3.4.2 1.5-.2 2.4-.6 3.2-9.4 16.3-28 24.4-46.3 24.4-31.3 0-53.7-28-53.7-58s22.3-58 53.7-58c31.3-.2 54 27.8 54 57.7m-9.9-4.5c-2-23-19.6-44-44-44s-41.7 21-44 44h88zm123-51.1c2.7 0 4.7 2.3 4.7 4.7 0 2.7-2 4.7-4.7 4.7h-25v98c0 2.3-2 4.7-4.7 4.7s-4.7-2.3-4.7-4.7v-98h-24c-2.7 0-4.7-2-4.7-4.7 0-2.3 2-4.7 4.7-4.7h24v-35.9c0-2.3 1.5-4.3 3.7-4.7 3.1-.5 5.6 1.7 5.6 4.6v36h25.1zm152.3 47.4v59.4c0 2.7-2.3 4.7-4.7 4.7-2.7 0-4.7-2-4.7-4.7v-59.4c0-20-11.3-40-33.7-40-28.6 0-41 25-39.4 50.7 0 .7.3 3.7.3 4v44.6c0 2.3-1.5 4.3-3.7 4.7-3.1.5-5.6-1.7-5.6-4.6v-195c0-2.3 2-4.7 4.7-4.7s4.7 2.3 4.7 4.7v110.3c8-14.3 22.3-24 39-24 27.4 0 43.1 23.9 43.1 49.3m167 8.2c0 2.6-2.2 4.8-4.8 4.8h-93.2c2.3 23 19.6 44 44 44 16.6 0 29-6.4 38.3-19.6 1.3-1.8 3.4-3 5.9-1.9 1.4.6 2.4 1.9 2.6 3.4.2 1.5-.2 2.4-.6 3.2-9.4 16.3-28 24.4-46.3 24.4-31.3 0-53.7-28-53.7-58s22.3-58 53.7-58c31.4-.2 54.1 27.8 54.1 57.7m-10-4.5c-2-23-19.6-44-44-44s-41.7 21-44 44h88zm124.4-46.7c0 3-1.7 4.7-4.3 5-27.4 4-39.7 26.3-39.7 52.3v44.6c0 2.3-1.5 4.3-3.7 4.7-3.1.5-5.6-1.7-5.6-4.6V253.4c0-2.3 1.5-4.3 3.7-4.7 3.1-.5 5.6 1.7 5.6 4.6V274c7.7-13 23-25.3 39-25.3 2.3-.2 5 1.5 5 4.2m153 51.2c0 2.6-2.2 4.8-4.8 4.8h-93.1c2.3 23 19.6 44 44 44 16.6 0 29-6.4 38.3-19.6 1.3-1.8 3.4-3 5.9-1.9 1.4.6 2.4 1.9 2.6 3.4.2 1.5-.2 2.4-.6 3.2-9.4 16.3-28 24.4-46.3 24.4-31.3 0-53.7-28-53.7-58s22.3-58 53.7-58c31.2-.2 53.9 27.8 54 57.7m-10-4.5c-2-23-19.6-44-44-44s-41.7 21-44 44h88zm160.3-45.6v101.8c0 2.7-2.3 4.7-4.7 4.7-2.7 0-4.7-2-4.7-4.7v-19.3c-7.7 15.4-21.4 26.3-38.7 26.3-27.7 0-43-24-43-49.3v-59.7c0-2.3 2-4.7 4.7-4.7s4.7 2.3 4.7 4.7v59.7c0 20 11.3 40 33.7 40 31.3 0 38.7-29.3 38.7-61.7v-38c0-2.7 2.7-5.4 6-4.5 2 .7 3.3 2.6 3.3 4.7m235.6 41.5v59.7c0 2.7-2.3 4.7-4.7 4.7-2.7 0-4.7-2-4.7-4.7v-59.7c0-20-11.3-39.7-33.7-39.7-28 0-38.7 30-38.7 53.3v46c0 2.7-2.3 4.7-4.7 4.7-2.7 0-4.7-2-4.7-4.7v-59.7c0-20-11.3-39.7-33.7-39.7-28.3 0-40 22.3-39 52 0 .7.3 2 0 2.3v44.9c0 2.3-1.5 4.3-3.8 4.7-3.1.5-5.6-1.7-5.6-4.6V253.4c0-2.3 1.5-4.3 3.7-4.7 3.1-.5 5.6 1.7 5.6 4.6v17c8-14.3 22.3-23.7 39-23.7 19 0 33.7 12 39.7 29.7 7.7-17.3 22.6-29.7 42-29.7 27.7 0 43.3 23.6 43.3 48.9" fill="#3c3c3b"/><g opacity=".6"><defs><path id="SVGID_1_" d="M27.8 213.9h311.3v162.8H27.8z"/></defs><clipPath id="SVGID_2_"><use xlink:href="#SVGID_1_" overflow="visible"/></clipPath><path d="M183.5 213.9L27.8 284.7l155.7 92 155.6-92-155.6-70.8z" clip-path="url(#SVGID_2_)" fill="#010101"/></g><g class="st3"><defs><path id="SVGID_3_" d="M27.8 26.3h155.7v350.3H27.8z"/></defs><clipPath id="SVGID_4_"><use xlink:href="#SVGID_3_" overflow="visible"/></clipPath><path d="M27.8 284.7l155.7 92V26.3L27.8 284.7z" clip-path="url(#SVGID_4_)" fill="#010101"/></g><g class="st5"><defs><path id="SVGID_5_" d="M183.5 26.3h155.7v350.3H183.5z"/></defs><clipPath id="SVGID_6_"><use xlink:href="#SVGID_5_" overflow="visible"/></clipPath><path d="M183.5 26.3v350.3l155.6-92L183.5 26.3z" clip-path="url(#SVGID_6_)" fill="#010101"/></g><g class="st3"><defs><path id="SVGID_7_" d="M27.8 314.2h155.7v219.3H27.8z"/></defs><clipPath id="SVGID_8_"><use xlink:href="#SVGID_7_" overflow="visible"/></clipPath><path d="M27.8 314.2l155.7 219.3V406.2l-155.7-92z" clip-path="url(#SVGID_8_)" fill="#010101"/></g><g class="st5"><defs><path id="SVGID_9_" d="M183.5 314.2h155.8v219.3H183.5z"/></defs><clipPath id="SVGID_10_"><use xlink:href="#SVGID_9_" overflow="visible"/></clipPath><path d="M183.5 406.2v127.4l155.8-219.3-155.8 91.9z" clip-path="url(#SVGID_10_)" fill="#010101"/></g></svg>