<svg id="litecoin" xmlns="http://www.w3.org/2000/svg" viewBox="0 0 393.8 132.2"><style>.st0{fill-rule:evenodd;clip-rule:evenodd;fill:#626264}</style><path class="st0" d="M146.1 38.8c0 2.7-2.2 5-5 5-2.7 0-5-2.2-5-5 0-2.7 2.2-5 5-5 2.8.1 5 2.3 5 5zm190.8.1c0 2.7-2.2 5-5 5-2.7 0-5-2.2-5-5 0-2.7 2.2-5 5-5s5 2.3 5 5z"/><path d="M48.5 38.9l-7.7 28.8-6.1 2.4-2.2 8.2 6.2-2.1-4.1 17 44.4.1 2.7-10.9h-27l3.5-13.1 7.3-3.1 2.1-8-7.1 2.4 5.6-21.4-17.6-.3zM57 17c27.1 0 49.1 22 49.1 49.1s-22 49.1-49.1 49.1-49.1-22-49.1-49.1C8 39 29.9 17 57 17z" fill-rule="evenodd" clip-rule="evenodd" fill="#b8b9bb"/><path class="st0" d="M119.5 31.1h6.6v70.3h-6.6V31.1zm55.6 24.8l-.1 6-9.4.1v39.5H159V62h-8v-6.2h8v-17h6.6v17l9.5.1zm20.3-.2c6.5-1.3 13.6-.5 19 3.5 7 5 9.8 14.3 8.7 22.5h-38.5c.6 4.3 2.7 8.4 6.3 11 7.1 5.3 18.5 3.9 23.5-3.5l.9-.9c2.2.3 4.3.9 6.4 1.3-2.1 4.8-6.1 8.7-10.9 10.8-5.9 2.6-12.7 2.7-18.6.5-5.6-2.1-10.2-6.6-12.5-12.2-2.7-6.8-2.5-14.6.6-21.2 2.8-6.1 8.6-10.5 15.1-11.8zm-6.1 10.5c-2.6 2.5-4.1 6-4.7 9.5h31.9c-.5-5.8-4.4-11.4-10.1-13.2-5.8-2-12.8-.6-17.1 3.7zm45.3-3.5c8.6-9.5 25.1-10.2 34.4-1.4-1.5 1.6-3.1 3.1-4.7 4.7-6.5-5.7-17-5.7-23.5-.1-7.8 6.6-7.3 20.3.8 26.4 6.5 5.1 16.5 4.8 22.7-.8l4.7 4.6c-8.8 8-23.8 8.3-32.6.4-9.4-8.4-10.2-24.5-1.8-33.8zm118.8.5c2.5-5.3 8.9-8.1 15-8.1 2.8 0 5.6.5 7.9 1.6 4.6 2 7.2 5.9 8.5 10.4.8 2.6 1.1 5.4 1.1 8.1l-.1 26.4h-6.5v-26c0-3.9-.8-8.1-3.5-11-2.7-2.7-6.9-3.4-10.5-2.6-4.2.6-8.2 3.1-10.2 7-1.2 2.4-1.7 5-1.7 7.7v24.9h-6.6V56.1l6.6.1v7zm-62.7-7.6c6.5-1.2 13.5-.2 19 3.5 5.2 3.3 8.7 8.9 9.7 14.9 1 6.3 0 13-3.6 18.3-4.2 6.3-11.8 10.1-19.4 10-6.4.3-12.9-2.1-17.4-6.7-7.6-7.3-8.8-19.7-3.9-28.8 3.1-5.9 9.1-10 15.6-11.2zm.6 6.6c-5.3 1.2-9.8 5.1-11.6 10.2-2.6 7.1-.4 15.9 5.9 20.2 7.4 5.4 19 4 24.4-3.5 3.9-5.4 4.4-13.1 1.2-18.9-3.7-7-12.5-10-19.9-8zm-153.5 39.3V56.1l6.3-.2.1 45.6h-6.4zm197.3 0h-6.4l.1-45.6h6.3v45.6z"/></svg>