<svg class="cfds-chart" xmlns="http://www.w3.org/2000/svg" viewBox="0 0 713.65 584.24">
    <defs>
    </defs>
    <g id="candle-chart">
        <path id="chart_bg" d="M536.94 279.72l72.94-72.93a18.15 18.15 0 0 0 0-25.66l-50.52-50.51a18.12 18.12 0 0 0-25.65 0l-48.05 48a18.12 18.12 0 0 1-25.65 0l-50.52-50.51a18.14 18.14 0 0 1 0-25.65l21-21a18.14 18.14 0 0 0 0-25.65L380 5.31a18.15 18.15 0 0 0-25.66 0L98.22 261.43a18.14 18.14 0 0 0 0 25.65l50.52 50.52a18.14 18.14 0 0 1 0 25.65l-21 21a18.14 18.14 0 0 0 0 25.65l50.51 50.51a18.14 18.14 0 0 0 25.66 0l48.05-48a18.12 18.12 0 0 1 25.65 0l50.52 50.51a18.15 18.15 0 0 1 0 25.66l-14.21 14.2a18.15 18.15 0 0 0 0 25.66l50.51 50.51a18.14 18.14 0 0 0 25.66 0l197.36-197.4a18.14 18.14 0 0 0 0-25.66l-50.51-50.51a18.14 18.14 0 0 1 0-25.66z" fill="#dfeaf2"></path>
        <path id="chart_grid" fill="#c4d7e6" d="M477.26 286.55h12v3h-12zM500.38 307.28h3v12h-3zM573.26 173.07h12v3h-12zM500.38 235.28h3v12h-3zM477.26 400.03h12v3h-12zM549.26 400.03h12v3h-12zM500.38 187.28h3v12h-3zM501.26 400.03h12v3h-12zM500.38 379.28h3v12h-3zM500.38 355.28h3v12h-3zM513.25 286.55h-9.87v-3.27h-3v11.99h3v-5.72h9.87v-3zM500.38 211.28h3v12h-3zM549.26 173.07h12v3h-12zM489.25 175.07l-1 1h1v-1zM237.26 173.07h12v3h-12zM189.26 400.03h12v3h-12zM237.26 286.55h12v3h-12zM237.26 400.03h12v3h-12zM189.26 286.55h12v3h-12zM189.26 173.07h12v3h-12zM213.26 400.03h12v3h-12zM261.26 286.55h12v3h-12zM601.82 173.07h-4.56v3h7.56l-3-3zM261.26 173.07h12v3h-12zM261.26 400.03h12v3h-12zM213.26 286.55h12v3h-12zM213.26 173.07h12v3h-12zM525.26 400.03h12v3h-12zM405.26 513.85h12v3h-12zM405.26 59.26h12v3h-12zM500.38 331.28h3v12h-3zM405.26 173.07h12v3h-12zM405.26 286.55h12v3h-12zM429.26 173.07h12v3h-12zM405.26 400.03h12v3h-12zM453.26 400.03h12v3h-12zM453.26 286.55h12v3h-12zM453.26 176.07h4.15l-3-3h-1.15v3zM429.26 400.03h12v3h-12zM429.26 286.55h12v3h-12zM429.26 513.85h12v3h-12zM429.26 62.26h5.38a18.06 18.06 0 0 0-1.46-3h-3.92zM105.26 286.55h-7.52c.17.18.31.36.48.53l2.47 2.47h4.57zM500.38 427.28h3v12h-3zM525.26 173.07h12v3h-12zM500.38 175.28h.88v.79h11.99v-3h-9.87v-9.79h-2.33l-.67.66v11.34zM500.38 403.28h3v12h-3zM500.38 451.28h3v12h-3zM381.26 513.85h12v3h-12zM381.26 173.07h12v3h-12zM525.26 289.55h6.63a17.42 17.42 0 0 1 .78-3h-7.41zM381.26 59.26h12v3h-12zM381.26 400.03h12v3h-12zM381.26 286.55h12v3h-12zM453.26 513.85v1.9l1.89-1.9h-1.89zM500.38 259.28h3v12h-3zM333.26 59.26h12v3h-12zM309.26 286.55h12v3h-12zM332.17 67.28h3v12h-3zM332.17 115.28h3v12h-3zM332.17 43.28h3v12h-3zM332.17 31.28h3v-6.79l-3 2.99v3.8zM332.17 139.28h3v12h-3zM332.17 187.28h3v12h-3zM332.17 211.28h3v12h-3zM332.17 91.28h3v12h-3zM332.17 235.28h3v12h-3zM332.17 259.28h3v12h-3zM345.26 173.07h-10.09v-9.79h-3v12h1.09v.79h12v-3zM357.26 173.07h12v3h-12zM357.26 400.03h12v3h-12zM345.26 286.55h-10.09v-3.27h-3v11.99h3v-5.72h10.09v-3zM357.26 286.55h12v3h-12zM357.26 59.26h12v3h-12zM335.17 547.28h-2.41l2.41 2.4v-2.4zM309.26 400.03h12v3h-12zM357.26 513.85h12v3h-12zM309.26 513.85h12v3h-12zM285.26 173.07h12v3h-12zM309.26 173.07h12v3h-12zM309.26 59.26h12v3h-12zM285.26 400.03h12v3h-12zM285.26 286.55h12v3h-12zM141.26 286.55h12v3h-12zM333.26 400.03h12v3h-12zM165.26 400.03h12v3h-12zM129.26 400h-6.59a17.36 17.36 0 0 0 .76 3h5.83zM163.95 235.28h3v12h-3zM141.26 400.03h12v3h-12zM163.95 379.28h3v12h-3zM163.95 259.28h3v12h-3zM163.95 211.28h3v12h-3zM163.95 403.28h3v12h-3zM117.26 286.55h12v3h-12zM163.95 427.28h3v12h-3zM163.95 331.28h3v12h-3zM163.95 355.28h3v12h-3zM163.95 307.28h3v12h-3zM332.17 403.28h3v12h-3zM166.95 283.28h-3v11.99h3v-5.72h10.31v-3h-10.31v-3.27zM332.17 451.28h3v12h-3zM335.17 487.28v-12h-1.77a18.23 18.23 0 0 1-1.23 7.06v4.94zM333.26 513.85h12v3h-12zM332.17 523.28h3v12h-3zM332.17 499.28h3v12h-3zM332.17 331.28h3v12h-3zM332.17 427.28h3v12h-3zM163.95 199.28h3v-6.58l-3 3v3.58zM332.17 307.28h3v12h-3zM332.17 379.28h3v12h-3zM332.17 355.28h3v12h-3z"></path>
        <g id="chart_candles">
            <path fill="#be1e2d" d="M285.39 227.76h-1.31v20.65h-4.35v50.91h4.35v22.27h1.31v-22.27h4.36v-50.91h-4.36v-20.65zM225.33 165.66h-1.31v18.55h-4.35v41.4h4.35v25.27h1.31v-25.27h4.36v-41.4h-4.36v-18.55zM164.4 359.61h-1.31v7.61h-4.35V378h4.35v3.65h1.31V378h4.36v-10.78h-4.36v-7.61zM43.26 521.96h-1.31v7.61H37.6v10.79h4.35v3.65h1.31v-3.65h4.36v-10.79h-4.36v-7.61zM265.08 186.89h-1.31v39.16h-4.35v18.08h4.35v48.42h1.31v-48.42h4.36v-18.08h-4.36v-39.16zM62.85 484.62h-1.31v8.46h-4.36v40.62h4.36v21.09h1.31V533.7h4.36v-40.62h-4.36v-8.46zM628.93 191.19h-1.31v32.74h-4.36v44.13h4.36v32.75h1.31v-32.75h4.35v-44.13h-4.35v-32.74zM589.18 178.2h-1.31v18.55h-4.36v41.4h4.36v25.27h1.31v-25.27h4.35v-41.4h-4.35V178.2zM568.86 111.82h-1.3v37.5h-4.36v50.55h4.36v37.5h1.3v-37.5h4.36v-50.55h-4.36v-37.5zM305.7 283.41h-1.31v12.9h-4.35v18.29h4.35v6.18h1.31v-6.18h4.36v-18.29h-4.36v-12.9zM668.67 242.06h-1.3v12.9h-4.36v18.28h4.36v6.19h1.3v-6.19h4.36v-18.28h-4.36v-12.9zM407.26 262.44h-1.31v22.33h-4.36v30.09h4.36v22.32h1.31v-22.32h4.35v-30.09h-4.35v-22.33zM548.55 70.42h-1.3v13.95h-4.36v68.47h4.36V175h1.3v-22.16h4.36V84.37h-4.36V70.42zM346.32 291.26h-1.31v32.22h-4.35v67.68h4.35v7.91h1.31v-7.91h4.36v-67.68h-4.36v-32.22zM488.5 141.86h-1.31v37.51h-4.36v50.54h4.36v37.5h1.31v-37.5h4.35v-50.54h-4.35v-37.51z"></path>
            <path fill="#4b8abb" d="M83.16 460.91h-1.31v15.26h-4.36v57.42h4.36v15.02h1.31v-15.02h4.36v-57.42h-4.36v-15.26zM205.02 177.75h-1.31v27.93h-4.35v125.37h4.35v38.2h1.31v-38.2h4.36V205.68h-4.36v-27.93zM184.71 340.25h-1.31v10.14h-4.35v30.31h4.35v5.85h1.31v-5.85h4.36v-30.31h-4.36v-10.14zM27.11 496.56h-1.3v10.13h-4.36v30.32h4.36v5.85h1.3v-5.85h4.36v-30.32h-4.36v-10.13zM144.09 356.92h-1.31v12.88h-4.35v43.33h4.35v9.98h1.31v-9.98h4.36V369.8h-4.36v-12.88zM123.78 383.26h-1.31v18.8h-4.36v62.69h4.36v15.9h1.31v-15.9h4.36v-62.69h-4.36v-18.8zM103.47 442.41h-1.31v14.2H97.8v43.33h4.36v8.67h1.31v-8.67h4.36v-43.33h-4.36v-14.2zM245.21 199.26h-1.31v15.98h-3.92v14.33h3.92v10.68h1.31v-10.68h3.92v-14.33h-3.92v-15.98zM326.01 265.4h-1.31v19.44h-4.35v34.71h4.35v23.81h1.31v-23.81h4.36v-34.71h-4.36V265.4zM366.64 307.14h-1.31v15.73h-4.36v52.46h4.36v13.3h1.31v-13.3h4.35v-52.46h-4.35v-15.73zM5.67 443.88H4.36v15.72H0v52.47h4.36v13.29h1.31v-13.29h4.35V459.6H5.67v-15.72zM386.94 270.51h-1.3v10.13h-4.36v30.32h4.36v5.85h1.3v-5.85h4.36v-30.32h-4.36v-10.13zM427.56 258.9h-1.3v11.73h-4.36v52.69h4.36v16.05h1.3v-16.05h4.36v-52.69h-4.36V258.9zM447.88 205.59h-1.31v15.26h-4.36v57.41h4.36v15.03h1.31v-15.03h4.35v-57.41h-4.35v-15.26zM468.19 177.09h-1.31v14.19h-4.36v43.34h4.36v8.66h1.31v-8.66h4.35v-43.34h-4.35v-14.19zM508.81 98.31h-1.31v26.85h-4.36v101.02h4.36v26.43h1.31v-26.43h4.35V125.16h-4.35V98.31zM528.68 48.27h-1.31v38.58h-3.92v34.61h3.92v25.8h1.31v-25.8h3.92V86.85h-3.92V48.27zM609.05 192.28h-1.31v23.79h-3.92v21.34h3.92v15.91h1.31v-15.91h3.92v-21.34h-3.92v-23.79zM648.8 235.58h-1.31v19.86h-3.92v17.82h3.92v13.28h1.31v-13.28h3.92v-17.82h-3.92v-19.86zM688.98 226.61h-1.3v24.85h-4.36v35.79h4.36v11.34h1.3v-11.34h4.36v-35.79h-4.36v-24.85zM709.29 142.96h-1.3v44.17h-4.36v63.61h4.36v20.17h1.3v-20.17h4.36v-63.61h-4.36v-44.17z"></path>
        </g>
    </g>
</svg>