<svg xmlns="http://www.w3.org/2000/svg" viewBox="0 0 100 100"><style><![CDATA[.A,.e,.g{fill:none}.I{fill:#d1d1d1}.G{fill:#c2c2c2}.H{fill:#9d9d9d}.e,.g{stroke:#888;stroke-width:1.17px}.e{stroke-miterlimit:10}.g{stroke-linecap:round;stroke-linejoin:round}]]></style><path class="A" d="M0 0h100v100H0z"/><path class="I" d="M54.06 33.46l-1.64-.4a2.47 2.47 0 0 1-1.52-3.67l.87-1.45-6.31-6.32-1.46.88a2.47 2.47 0 0 1-3.66-1.5l-.41-1.64H31L30.59 21a2.47 2.47 0 0 1-3.67 1.52l-1.44-.88-6.32 6.32.84 1.43a2.46 2.46 0 0 1-1.52 3.67l-1.64.4v8.94l1.64.4A2.46 2.46 0 0 1 20 46.47l-.87 1.45 6.32 6.32 1.44-.88a2.47 2.47 0 0 1 3.67 1.52l.44 1.64h8.93l.41-1.64A2.47 2.47 0 0 1 44 53.36l1.45.88 6.31-6.32-.87-1.45a2.47 2.47 0 0 1 1.52-3.67l1.64-.4z"/><circle class="G" cx="35.47" cy="37.93" r="13.57" transform="translate(-16.43 36.19) rotate(-45)"/><circle class="H" cx="35.47" cy="37.93" r="7.69"/><circle class="I" cx="35.47" cy="37.93" r="4.77"/><path class="I" d="M73.42,63.48l-1-.63a1.74,1.74,0,0,1-.21-2.79l.9-.77-2.84-5.62-1.16.27A1.73,1.73,0,0,1,67,52.12l.08-1.19-6-2-.63,1a1.74,1.74,0,0,1-2.79.21l-.78-.9-5.61,2.85.27,1.15a1.75,1.75,0,0,1-1.83,2.13l-1.18-.09-2,6,1,.63a1.74,1.74,0,0,1,.21,2.79l-.9.77,2.84,5.62,1.16-.27A1.73,1.73,0,0,1,53,72.67l-.08,1.19,6,2,.63-1a1.74,1.74,0,0,1,2.79-.22l.78.9,5.61-2.84-.27-1.16a1.74,1.74,0,0,1,1.83-2.12l1.18.09Z"/><circle class="G" cx="60" cy="62.39" r="9.55" transform="translate(-9.83 11.24) rotate(-9.89)"/><path class="H" d="M65.15 64.08a5.42 5.42 0 1 1-3.46-6.83 5.42 5.42 0 0 1 3.46 6.83z"/><path class="I" d="M63.19 63.44A3.36 3.36 0 1 1 61 59.21a3.35 3.35 0 0 1 2.19 4.23z"/><path class="e" d="M58.77 33a1.92 1.92 0 0 1-1.93-2v-2.61a1.92 1.92 0 1 1 3.85 0V31a1.92 1.92 0 0 1-1.92 2zm16.58 0a1.93 1.93 0 0 1-1.93-2v-2.61a1.93 1.93 0 1 1 3.86 0V31a1.93 1.93 0 0 1-1.93 2zm6.44 0a1.92 1.92 0 0 1-1.93-2v-2.61a1.92 1.92 0 1 1 3.85 0V31a1.92 1.92 0 0 1-1.92 2z"/><path class="g" d="M63.28 26.47h1.27v6.48m-1.27 0h2.49m2.68-6.48h1.27v6.48m-1.27 0h2.49"/><path class="e" d="M81.64 43.89A1.92 1.92 0 0 1 79.71 42v-2.67a1.92 1.92 0 1 1 3.85 0V42a1.92 1.92 0 0 1-1.92 1.89z"/><rect class="e" x="67.77" y="37.4" width="3.85" height="6.49" rx="1.93"/><path class="e" d="M88.07 43.89A1.92 1.92 0 0 1 86.15 42v-2.67a1.92 1.92 0 1 1 3.85 0V42a1.92 1.92 0 0 1-1.93 1.89z"/><path class="g" d="M74.73 37.4H76v6.49m-1.27 0h2.49"/><path class="e" d="M11.93 69.73A1.93 1.93 0 0 1 10 67.8v-2.63a1.92 1.92 0 1 1 3.85 0v2.63a1.93 1.93 0 0 1-1.92 1.93zm16.58 0a1.93 1.93 0 0 1-1.93-1.93v-2.63a1.92 1.92 0 0 1 1.93-1.93 1.93 1.93 0 0 1 1.93 1.93v2.63a1.94 1.94 0 0 1-1.93 1.93zm6.49 0a1.93 1.93 0 0 1-2-1.93v-2.63a1.92 1.92 0 0 1 2-1.93 1.92 1.92 0 0 1 1.92 1.93v2.63A1.93 1.93 0 0 1 35 69.73z"/><path class="g" d="M16.44 63.24h1.27v6.49m-1.27 0h2.49m2.68-6.49h1.27v6.49m-1.27 0h2.49"/><path class="e" d="M34.79 80.66a1.92 1.92 0 0 1-1.92-1.92V76.1a1.92 1.92 0 1 1 3.85 0v2.64a1.92 1.92 0 0 1-1.93 1.92zm-11.94 0a1.93 1.93 0 0 1-1.93-1.92V76.1a1.93 1.93 0 0 1 1.93-1.92 1.92 1.92 0 0 1 1.93 1.92v2.64a1.92 1.92 0 0 1-1.93 1.92zm18.38 0a1.92 1.92 0 0 1-1.92-1.92V76.1a1.92 1.92 0 1 1 3.85 0v2.64a1.92 1.92 0 0 1-1.93 1.92z"/><path class="g" d="M27.89 74.18h1.27v6.48m-1.27 0h2.49"/></svg>