<svg xmlns="http://www.w3.org/2000/svg" viewBox="0 0 100 100"><style><![CDATA[.S{fill:#f0c419}]]></style><path d="M0 0h100v100H0z" fill="none"/><rect x="23.66" y="23.66" width="52.68" height="52.68" rx="3.72" fill="#656565"/><path d="M73.57 75.38H28.34a3.71 3.71 0 0 1-3.72-3.72V26.43a3.71 3.71 0 0 1 .65-2.11 3.71 3.71 0 0 0-1.61 3.06v45.24a3.73 3.73 0 0 0 3.72 3.72h45.24a3.71 3.71 0 0 0 3.06-1.61 3.71 3.71 0 0 1-2.11.65z" fill="#424242"/><path d="M31.37 31.37h37.26v37.26H31.37z" fill="#c2c2c2"/><path d="M31.37 31.37l37.26 37.26H31.37V31.37z" fill="#888"/><path d="M34.72 34.72h30.57v30.57H34.72z" fill="#d1d1d1"/><path d="M34.72 34.72v1.38H63.9v29.18h1.38V34.72H34.72z" fill="#fff"/><path class="S" d="M50 13a3 3 0 0 0-3 3v10.56a3 3 0 1 0 6 0V16a3 3 0 0 0-3-3zm-12.09 0a3 3 0 0 0-3 3v10.56a3 3 0 1 0 6 0V16a3 3 0 0 0-3-3zm24.18 0a3 3 0 0 0-3 3v10.56a3 3 0 1 0 6 0V16a3 3 0 0 0-3-3zM50 70.42a3 3 0 0 0-3 3V84a3 3 0 1 0 6 0V73.44a3 3 0 0 0-3-3.02zm-12.09 0a3 3 0 0 0-3 3V84a3 3 0 1 0 6 0V73.44a3 3 0 0 0-3-3.02zm24.18 0a3 3 0 0 0-3 3V84a3 3 0 1 0 6 0V73.44a3 3 0 0 0-3-3.02zM87 50a3.16 3.16 0 0 0-3.16-3.16H73.58a3.16 3.16 0 1 0 0 6.32h10.26A3.16 3.16 0 0 0 87 50z"/><rect class="S" x="75.55" y="29.07" width="6.32" height="16.58" rx="3.16" transform="matrix(0 1 -1 0 116.07 -41.349998)"/><path class="S" d="M87 62.64a3.15 3.15 0 0 0-3.16-3.16H73.58a3.15 3.15 0 0 0-3.16 3.16 3.16 3.16 0 0 0 3.16 3.16h10.26A3.16 3.16 0 0 0 87 62.64zM29.58 50a3.16 3.16 0 0 0-3.16-3.16H16.16a3.16 3.16 0 1 0 0 6.32h10.26A3.16 3.16 0 0 0 29.58 50z"/><rect class="S" x="18.13" y="29.07" width="6.32" height="16.58" rx="3.16" transform="matrix(0 1 -1 0 58.650002 16.07)"/><path class="S" d="M29.58 62.64a3.15 3.15 0 0 0-3.16-3.16H16.16A3.15 3.15 0 0 0 13 62.64a3.16 3.16 0 0 0 3.16 3.16h10.26a3.16 3.16 0 0 0 3.16-3.16z"/></svg>