<svg xmlns="http://www.w3.org/2000/svg" viewBox="0 0 100 100"><style><![CDATA[.A,.I{fill:none}.I{stroke:#ffd800;stroke-linejoin:round;stroke-width:1.48px}.M{fill:#9d9d9d}.Z{fill:#d1d1d1}.R{fill:#c2c2c2}]]></style><path class="A" d="M0 0h100v100H0z"/><path class="I" d="M41.57 60.66l-9.61 9.62v9.41m4.17-28.95H23.29l-7.43 7.43m20.91-18.13h-9.03l-5.07-5.07H11.93m29.64-1.85L26.5 18.05m23.22 13.09v-8.27h6.43V11.75m4.9 25.76l7.77-7.77h13.51m-17.6 18.7h9.26l5.28-5.28h8.81M62.14 56.03l8.51 8.52v8.36"/><path d="M68.14 45.73A18.32 18.32 0 1 0 37.8 59.56a7.83 7.83 0 0 1 2.67 5.92v-.15a1.7 1.7 0 0 0 1.7 1.7h15.29a1.7 1.7 0 0 0 1.7-1.7V64a4.87 4.87 0 0 1 1.92-3.83 18.27 18.27 0 0 0 7.06-14.44z" fill="#f0c419"/><path class="M" d="M46.65 69.31a.49.49 0 0 1-.47-.38l-4-17.59a.49.49 0 1 1 1-.22l4 17.59a.5.5 0 0 1-.37.59zm6.35 0h-.11a.49.49 0 0 1-.37-.59l4-17.59a.49.49 0 0 1 .58-.37.5.5 0 0 1 .37.59l-4 17.59a.49.49 0 0 1-.47.37z"/><path class="M" d="M53.34,55.14l-3.22-3.22L47,55l-2-2H41.26a.49.49,0,0,1,0-1h4.19L47,53.62l3.08-3.08,3.22,3.22,1.42-1.42h3.42a.49.49,0,1,1,0,1h-3Z"/><path d="M49.81 82.17a4.57 4.57 0 0 1-4.57-4.57v-2.14h9.15v2.14a4.57 4.57 0 0 1-4.58 4.57z" fill="#4c4c4c"/><path class="Z" d="M40.47 64.91h18.69a0 0 0 0 1 0 0v6.51a7.49 7.49 0 0 1-7.49 7.49H48a7.49 7.49 0 0 1-7.49-7.49v-6.51a0 0 0 0 1-.04 0z"/><ellipse cx="58.65" cy="38.89" rx="6.07" ry="7.7" transform="translate(-10.32 52.86) rotate(-45)" fill="#f6dc75"/><path class="R" d="M40.47 67.03h18.69v2.28H40.47zM59 72.91H40.62a7.48 7.48 0 0 0 .87 2.28h16.64a7.25 7.25 0 0 0 .87-2.28z"/><circle class="Z" cx="26.45" cy="18.22" r="1.93"/><circle class="Z" cx="11.93" cy="34.71" r="1.93"/><path class="Z" d="M17.78 58.17a1.93 1.93 0 1 1-1.92-1.92 1.92 1.92 0 0 1 1.92 1.92z"/><circle class="Z" cx="31.96" cy="79.69" r="1.93"/><circle class="Z" cx="70.65" cy="72.91" r="1.93"/><path class="Z" d="M90 43.16a1.93 1.93 0 1 1-1.93-1.93A1.92 1.92 0 0 1 90 43.16zm-5.74-13.42a1.93 1.93 0 1 1-1.93-1.93 1.93 1.93 0 0 1 1.93 1.93zM58.07 11.75a1.93 1.93 0 1 1-1.92-1.92 1.93 1.93 0 0 1 1.92 1.92z"/></svg>