<svg xmlns="http://www.w3.org/2000/svg" viewBox="0 0 48.91 57"><path d="M45.19 0H3.72A3.71 3.71 0 0 0 .27 5.1L14 39h8.32l-5.55-15.5h15.36L26.63 39H35L48.63 5.1A3.71 3.71 0 0 0 45.19 0z" fill="#27dda6"></path><path fill="#333" d="M4.12 45.13a3.14 3.14 0 0 1 3.13-3.23 3.26 3.26 0 0 1 2.29.88.26.26 0 0 1 .09.18.25.25 0 0 1-.24.24.2.2 0 0 1-.16-.07 2.81 2.81 0 0 0-2-.81 2.67 2.67 0 0 0-2.63 2.77 2.69 2.69 0 0 0 2.65 2.81 2.76 2.76 0 0 0 2-.86.2.2 0 0 1 .19-.04.22.22 0 0 1 .22.22.22.22 0 0 1-.07.16 3.22 3.22 0 0 1-2.36 1 3.11 3.11 0 0 1-3.11-3.25zM11.89 42.22a.23.23 0 0 1 .23-.23h2.39a2.49 2.49 0 0 1 1.76.61 1.68 1.68 0 0 1 .47 1.16c0 1-.78 1.64-1.83 1.79l1.78 2.3a.28.28 0 0 1 .07.16.24.24 0 0 1-.45.12l-1.92-2.5h-2V48a.24.24 0 0 1-.23.23.23.23 0 0 1-.23-.23zm2.56 3c1.05 0 1.83-.53 1.83-1.43 0-.84-.67-1.36-1.8-1.36h-2.13v2.81zM21 45.76l-2.44-3.43a.42.42 0 0 1 0-.15.24.24 0 0 1 .45-.09l2.27 3.25 2.27-3.25c.06-.07.11-.14.21-.14a.24.24 0 0 1 .23.23.28.28 0 0 1-.07.17l-2.42 3.4V48a.23.23 0 0 1-.23.23A.24.24 0 0 1 21 48zM26.08 42.22a.24.24 0 0 1 .23-.23h2c1.37 0 2.32.7 2.32 1.91 0 1.31-1.13 2-2.44 2h-1.64V48a.24.24 0 0 1-.47 0zm2.18 3.26c1.16 0 1.94-.61 1.94-1.54 0-1-.76-1.5-1.89-1.5h-1.76v3.06zM34.45 42.42h-2a.22.22 0 1 1 0-.43h4.46a.22.22 0 0 1 0 .43h-2V48a.24.24 0 0 1-.47 0zM38.5 45.13a3.15 3.15 0 1 1 6.29 0 3.15 3.15 0 1 1-6.29 0zm5.8 0a2.7 2.7 0 0 0-2.66-2.81A2.67 2.67 0 0 0 39 45.09a2.66 2.66 0 1 0 5.31 0zM5.07 51.14a.71.71 0 0 1 .71-.71h1.93a2.21 2.21 0 0 1 2.48 2.23C10.19 54.18 9 55 7.58 55H6.5v1.28a.72.72 0 0 1-1.43 0zm2.55 2.55a1 1 0 0 0 1.13-1c0-.64-.44-1-1.16-1H6.5v2zM12.16 51.14a.7.7 0 0 1 .71-.71h2.24a2.62 2.62 0 0 1 1.89.65 2 2 0 0 1 .55 1.48 2 2 0 0 1-1.29 2l1 1.2a.9.9 0 0 1 .23.55.66.66 0 0 1-.68.65.86.86 0 0 1-.7-.36l-1.38-1.76h-1.15v1.41a.71.71 0 0 1-1.42 0zM15 53.57c.69 0 1.09-.37 1.09-.92 0-.61-.42-.92-1.12-.92h-1.39v1.86zM19.42 53.68a3.43 3.43 0 0 1 6.86 0 3.43 3.43 0 0 1-6.86 0zm5.38 0a2 2 0 0 0-2-2 1.93 1.93 0 0 0-1.94 2 2 2 0 0 0 2 2 1.94 1.94 0 0 0 1.94-2zM28.47 51.14a.71.71 0 0 1 .71-.71h3.62a.64.64 0 0 1 .65.64.65.65 0 0 1-.65.65h-2.91v1.37h2.5a.65.65 0 0 1 0 1.3h-2.5v1.84a.71.71 0 0 1-1.42 0zM35.36 51.08a.71.71 0 1 1 1.42 0v5.15a.71.71 0 0 1-1.42 0zM40.67 51.74H39.3a.66.66 0 0 1-.65-.66.65.65 0 0 1 .65-.65h4.16a.65.65 0 0 1 .65.65.66.66 0 0 1-.65.66h-1.37v4.49a.71.71 0 0 1-1.42 0z"></path></svg>