<svg version="1.1" xmlns="http://www.w3.org/2000/svg" xmlns:xlink="http://www.w3.org/1999/xlink" x="0px" y="0px" width="30.5px" height="104.2px" viewBox="0 0 30.5 104.2" style="enable-background:new 0 0 30.5 104.2;" xml:space="preserve">
                                <style type="text/css">
                                    .arrowShape{fill:#93C01F;}
                                </style>
    <defs>
                                </defs>
    <path class="arrowShape" d="M9.2,75l-6.8-4.6L0,104.2l30.5-14.9l-7-4.7c2.3-6.9,3.6-14,4-21.1c0.4-8.3-0.4-16.6-2.5-24.4
                                c-2.1-7.8-5.3-15.2-9.6-21.8C11.1,10.7,5.9,4.9,0,0c4.8,5.9,8.7,12.5,11.4,19.4c2.7,6.9,4.3,14.1,4.7,21.3c0.4,7.2-0.2,14.3-2,21
                                C13,66.3,11.3,70.8,9.2,75z"></path>
                                </svg>