<svg version="1.1" xmlns="http://www.w3.org/2000/svg" xmlns:xlink="http://www.w3.org/1999/xlink" x="0px" y="0px" viewBox="0 0 106 150" class="lockIcon" style="enable-background:new 0 0 106 150;" xml:space="preserve">
                            <style type="text/css">
                                .st0 {
                                    fill: #455A64;
                                }

                                .st1 {
                                    fill: #FFC107;
                                }

                                .st2 {
                                    fill: #261B00;
                                }
                            </style>
    <defs>
                            </defs>
    <g>
                                <g>
                                    <path class="st0" d="M53,17c13.3,0,24.3,10.9,24.5,24.2c0,0.2,0,0.3,0,0.5V92h-49V41.7c0-0.2,0-0.3,0-0.5C28.7,27.9,39.7,17,53,17
                                                        M53,0C30.2,0,11.8,18.3,11.5,41h0v68h83V41h0C94.2,18.3,75.8,0,53,0L53,0z"></path>
                                </g>
        <path class="st1" d="M100.2,150H5.8c-3.2,0-5.8-2.6-5.8-5.8V66.8C0,63.6,2.6,61,5.8,61h94.4c3.2,0,5.8,2.6,5.8,5.8v77.4
                                                C106,147.4,103.4,150,100.2,150z"></path>
        <g>
                                    <circle class="st2" cx="53" cy="97.5" r="15.5"></circle>
            <path class="st2" d="M58.8,131H46.9c-1.4,0-2.5-1.2-2.4-2.6l1.7-29.1c0.1-1.3,1.1-2.3,2.4-2.3H57c1.3,0,2.3,1,2.4,2.3l1.7,29.1
                                                    C61.3,129.8,60.2,131,58.8,131z"></path>
                                </g>
                            </g>
                        </svg>