<svg xmlns="http://www.w3.org/2000/svg" viewBox="0 0 278.27 78.71"><defs><style>.cls-1{fill:#f29100;}.cls-2{fill:#fff;}.cls-3{fill:#93c01f;}</style></defs><title>cc-fortune_logo_white-color</title><g id="Vrstva_2" data-name="Vrstva 2"><g id="Vrstva_1-2" data-name="Vrstva 1"><path class="cls-1" d="M39.36,0h8.19A25.51,25.51,0,0,1,73.05,25.51V53.2A25.51,25.51,0,0,1,47.54,78.71H39.36A39.36,39.36,0,0,1,0,39.36v0A39.36,39.36,0,0,1,39.36,0Z"/><path class="cls-2" d="M49.84,49.09l-1.52,6.58a1.4,1.4,0,0,1-.84,1,10.55,10.55,0,0,1-3.75.73c-5.87,0-11.36-4.92-11.36-18S37.92,21.26,44,21.26a8.57,8.57,0,0,1,3,.54,1.39,1.39,0,0,1,.84,1l1.6,6.85a1.42,1.42,0,0,0,1.38,1.09h2.6a1.42,1.42,0,0,0,1.41-1.45l-.19-7.74a1.43,1.43,0,0,0-.77-1.23,24.25,24.25,0,0,0-11.68-2.76c-11.66,0-22.76,6-22.76,21.82,0,15.45,10.21,21.82,22.13,21.82a27.65,27.65,0,0,0,12.71-2.89A1.44,1.44,0,0,0,55,57.07l.19-7.62A1.41,1.41,0,0,0,53.82,48h-2.6A1.41,1.41,0,0,0,49.84,49.09Z"/><rect class="cls-2" x="35.47" y="10.91" width="5.02" height="9.06" rx="1.03"/><rect class="cls-2" x="42.22" y="10.91" width="5.02" height="9.06" rx="1.03"/><rect class="cls-2" x="35.47" y="58.74" width="5.02" height="9.06" rx="1.03"/><rect class="cls-2" x="42.22" y="58.74" width="5.02" height="9.06" rx="1.03"/><path class="cls-2" d="M85.73,19.42c0-8.1,4.42-13.19,10.92-13.19a8.8,8.8,0,0,1,6.65,3.06l-1,1.19a7.29,7.29,0,0,0-5.58-2.63c-5.6,0-9.07,4.46-9.07,11.55S91,31.09,96.52,31.09A8.21,8.21,0,0,0,103,27.94l1,1.12a9.48,9.48,0,0,1-7.6,3.65C90.13,32.71,85.73,27.54,85.73,19.42Z"/><path class="cls-2" d="M107.77,13.63h1.44l.19,3.47h.09c1.26-2.28,3.08-3.94,5.29-3.94a3.93,3.93,0,0,1,1.85.39l-.39,1.55a4.26,4.26,0,0,0-1.68-.31c-1.68,0-3.66,1.27-5.08,4.79V32.25h-1.71Z"/><path class="cls-2" d="M118.66,40.34l.39-1.49a4.61,4.61,0,0,0,1.52.31c2.28,0,3.83-2.1,4.77-4.94l.51-1.62-7.64-19h1.85l4.49,11.7c.61,1.57,1.35,3.57,2,5.23h.16c.6-1.65,1.19-3.65,1.73-5.23l4-11.7h1.75l-7.35,21c-1,3.1-2.92,6.13-6.26,6.13A4.8,4.8,0,0,1,118.66,40.34Z"/><path class="cls-2" d="M137.45,13.63h1.45l.19,2.34h.09c1.81-1.46,4-2.81,6.32-2.81,5,0,7.45,3.74,7.45,9.5,0,6.32-3.82,10.05-8.21,10.05a9.67,9.67,0,0,1-5.59-2.28l0,3.43v6.82h-1.72Zm13.7,9c0-4.57-1.63-8-5.93-8-1.84,0-3.8,1.09-6.05,3.07V28.8a9,9,0,0,0,5.48,2.39C148.44,31.19,151.15,27.72,151.15,22.67Z"/><path class="cls-2" d="M157.67,27.11v-12h-2.91V13.79l3-.16.21-5.39h1.46v5.39h5.4v1.5h-5.4v12.1c0,2.38.6,4,3.16,4a6.84,6.84,0,0,0,2.34-.59l.45,1.39a11,11,0,0,1-3,.69C158.71,32.71,157.67,30.44,157.67,27.11Z"/><path class="cls-2" d="M166.33,23c0-6.22,3.89-9.81,8.36-9.81s8.36,3.59,8.36,9.81-3.89,9.74-8.36,9.74S166.33,29.13,166.33,23Zm14.92,0c0-4.9-2.8-8.29-6.56-8.29s-6.56,3.39-6.56,8.29,2.8,8.23,6.56,8.23S181.25,27.87,181.25,23Z"/><path class="cls-2" d="M186.8,19.76c0-8.39,5.54-13.25,11.93-13.25a10.7,10.7,0,0,1,7.6,3.28l-3,3.67a6.3,6.3,0,0,0-4.45-2c-3.47,0-6.21,3.06-6.21,8.13s2.42,8.21,6.11,8.21a6.67,6.67,0,0,0,5-2.36l3,3.58a10.41,10.41,0,0,1-8.16,3.71C192.15,32.71,186.8,28.27,186.8,19.76Z"/><path class="cls-2" d="M208.8,13h4.65l.41,3.36H214c1.4-2.56,3.5-3.82,5.46-3.82a5.5,5.5,0,0,1,2.3.38l-.95,4.92a7.83,7.83,0,0,0-2.08-.31c-1.45,0-3.21.94-4.23,3.56V32.25h-5.7Z"/><path class="cls-2" d="M222.82,26.91c0-4.05,3.23-6.24,10.83-7a2.67,2.67,0,0,0-3-2.78,10.6,10.6,0,0,0-5.09,1.74l-2-3.74a15.72,15.72,0,0,1,8.21-2.53c4.92,0,7.64,2.81,7.64,8.7v11H234.7l-.41-2h-.14a8.45,8.45,0,0,1-5.6,2.43A5.54,5.54,0,0,1,222.82,26.91Zm10.83-.25V23.3c-4.05.55-5.37,1.7-5.37,3.16,0,1.24.85,1.85,2.21,1.85A4.32,4.32,0,0,0,233.65,26.66Z"/><path class="cls-2" d="M241.51,30l2.57-3.55a8.37,8.37,0,0,0,5,2c1.69,0,2.43-.65,2.43-1.66,0-1.27-1.91-1.84-3.89-2.62-2.36-.91-5.09-2.47-5.09-5.65,0-3.58,2.91-6,7.35-6A11,11,0,0,1,256.62,15l-2.55,3.42a7.19,7.19,0,0,0-4-1.64c-1.47,0-2.2.58-2.2,1.54,0,1.22,1.8,1.69,3.8,2.42,2.43.9,5.18,2.27,5.18,5.79s-2.75,6.2-7.9,6.2A12.53,12.53,0,0,1,241.51,30Z"/><path class="cls-2" d="M259.14,5.08h5.7v6.64l-.26,3.49a8.66,8.66,0,0,1,5.94-2.66c4.18,0,6,2.95,6,7.76V32.25h-5.7V21c0-2.77-.75-3.64-2.39-3.64-1.44,0-2.31.67-3.56,1.87v13h-5.7Z"/><path class="cls-3" d="M86.79,41.69V38.55h9v3.94h-1Zm11,27.65,8,.8v3.14H86.79V70.14l8-.8Zm-7.3-14.28c0-5.49,0-11-.16-16.51h10.87c-.16,5.38-.16,10.92-.16,16.51v1.65c0,5.54,0,11.08.16,16.57H90.36c.16-5.38.16-10.92.16-16.52Zm18.06-16.51L113,41.69H95.79V38.55h19l.37,9.05h-5ZM107.46,57H95.79V53.57h11.67Zm-1.6-2.35.8-4.9H110V61.29h-3.36l-.8-5.16Z"/><path class="cls-3" d="M113.74,60.12c0-7.94,5.86-13.64,14.06-13.64S141.87,52,141.87,60.12s-5,14-14.07,14S113.74,68.06,113.74,60.12Zm17.47.16c0-7.72-1.07-10.87-3.41-10.87s-3.41,3.15-3.41,10.87,1.07,10.92,3.41,10.92S131.21,68.06,131.21,60.28Z"/><path class="cls-3" d="M144.84,62.09V58.74c0-2.93-.05-3.79-.16-5.92l-2.88-.48V50.16l11.77-3.68,1,.59.43,6.5v8.52c0,3.3,0,8.79.16,11.19H144.68C144.79,70.88,144.84,65.39,144.84,62.09Zm-2.61,8.47L147,69.5h7.35l4.8,1.06v2.72H142.23Zm8.09-15.45h4.37L154.21,57c.64-7.14,4.53-10.5,7.73-10.5,2.61,0,4.58,1.49,4.95,4.74-.16,2.88-1.92,4.53-4,4.53-1.76,0-3.09-.9-4.47-2.93l-1.6-2.34,2,1.28a13.92,13.92,0,0,0-3.78,7l-4.64-.54Z"/><path class="cls-3" d="M184.16,69.12a4.22,4.22,0,0,0,2.61-1.06l1.33,1.22c-1.44,3.09-4,4.85-8.41,4.85-5.28,0-8.32-2.24-8.32-7.94,0-2.07.06-3.62.06-5.7V51.33h-3V47.82l6.18-.8-3.41,2.29,4.05-9.54h6.34V65.61C181.55,68,182.67,69.12,184.16,69.12Zm2.29-21.78v4h-9.91v-4Z"/><path class="cls-3" d="M201.58,64.81c0,2.77,1,3.62,2.34,3.62,1.87,0,4.37-2.45,5.54-4.53h2.4v3.84h-3.78l1.65-1.81c-2.35,5-5.86,8.2-10.6,8.2s-7.89-2.56-7.78-9.59l.21-14.43,1.92,2L188.79,51v-2.4l12.1-1.86,1,.59-.27,7.56Zm6.07,9.11-.32-6.29.21-17.58,1.92,2L205,51V48.88l11.77-2.13,1,.59-.16,7.56V73.28l-4.42-4.1L220,70.61v2.72Z"/><path class="cls-3" d="M224,73.28c.11-2.4.16-7.89.16-11.19v-3.3c0-2.93-.05-3.84-.16-6l-2.87-.48V50.16l11.77-3.68,1,.59.42,5.81v9.21c0,3.3.06,8.79.16,11.19Zm12.36-2.72v2.72h-14.7V70.56l4.58-1.06h5.22Zm13.9-15.18v6.71c0,3.41.06,8.79.16,11.19H239.93c.11-2.4.16-7.78.16-11.19v-6c0-2.82-.69-3.89-2.39-3.89s-4.32,1.55-6.08,4h-2.08V52.34h4l-1.92,1.71c4.21-6.18,6.76-7.57,10.6-7.57C246.8,46.48,250.21,49.57,250.21,55.38ZM247.34,69.5l5.16,1.06v2.72H237.75V70.56l4.42-1.06Z"/><path class="cls-3" d="M278.27,58.15A11.45,11.45,0,0,1,278,61H256.7v-3h8.95c2.55,0,3.24-.86,3.24-3.57,0-3.68-1.33-5-2.71-5-1.76,0-3,2.24-3,10,0,6.39,3.15,9.06,6.61,9.06a8.4,8.4,0,0,0,6.07-2.51l2.08,2c-2.29,4.31-6.29,6.23-11.56,6.23-8,0-13.85-5.11-13.85-13.9,0-9.17,7.35-13.75,14.33-13.75C274.44,46.48,278.27,51.7,278.27,58.15Z"/></g></g></svg>